<?xml version="1.0" standalone="no"?>
<!DOCTYPE svg PUBLIC "-//W3C//DTD SVG 20010904//EN"
 "http://www.w3.org/TR/2001/REC-SVG-20010904/DTD/svg10.dtd">
<svg version="1.0" xmlns="http://www.w3.org/2000/svg"
 width="1024.000000pt" height="1024.000000pt" viewBox="0 0 1024.000000 1024.000000"
 preserveAspectRatio="xMidYMid meet">

<g transform="translate(0.000000,1024.000000) scale(0.100000,-0.100000)"
fill="#4870d4" stroke="none">
<path d="M5378 7729 c-50 -64 -73 -105 -99 -183 -17 -50 -38 -85 -72 -122 -95
-104 -224 -154 -417 -161 -221 -9 -363 44 -437 161 -38 59 -112 135 -159 162
l-42 25 -50 -20 c-155 -61 -446 -226 -590 -334 l-53 -40 6 -51 c12 -99 27
-157 57 -224 28 -62 30 -73 26 -157 -6 -107 -34 -186 -111 -303 -91 -140 -221
-245 -342 -277 -55 -14 -68 -14 -158 1 -83 15 -111 15 -173 6 -42 -7 -83 -16
-93 -22 -18 -9 -111 -265 -111 -304 0 -15 59 -16 694 -16 l693 0 38 58 c206
313 542 532 930 608 135 26 378 24 515 -5 202 -43 357 -107 524 -218 124 -82
290 -245 366 -360 l55 -82 505 -1 505 0 40 26 c52 35 131 111 156 151 l19 31
-29 82 c-53 145 -189 383 -315 554 l-58 79 -59 -7 c-60 -6 -115 -23 -229 -71
-56 -24 -73 -27 -135 -22 -140 11 -286 86 -416 216 -141 142 -176 239 -149
417 14 98 0 221 -27 242 -73 54 -514 178 -710 198 l-60 6 -35 -43z"/>
<path d="M1410 6143 c-225 -44 -411 -138 -558 -281 -64 -62 -162 -186 -162
-204 0 -4 203 -9 451 -10 l451 -3 119 -259 c66 -142 119 -262 119 -266 0 -4
-53 -124 -119 -266 l-119 -259 -451 -3 c-248 -1 -451 -6 -451 -10 0 -18 98
-142 162 -204 121 -119 289 -214 458 -260 73 -20 109 -23 260 -23 211 0 284
16 455 100 133 65 251 157 336 260 l62 75 2697 0 2697 0 60 -73 c124 -151 336
-286 533 -339 73 -20 109 -23 260 -23 151 0 187 3 260 23 169 46 337 141 459
260 65 64 161 185 161 203 0 5 -200 10 -451 11 l-452 3 -120 263 -120 262 121
263 120 262 451 3 c251 1 451 6 451 11 0 18 -96 139 -161 203 -122 119 -290
214 -459 260 -74 20 -108 23 -260 23 -151 0 -187 -4 -260 -23 -191 -51 -410
-189 -524 -329 l-51 -63 -2715 0 -2715 0 -53 65 c-75 93 -198 187 -327 250
-160 79 -236 96 -430 100 -88 2 -171 1 -185 -2z m2160 -648 l55 -65 24 27 c91
106 86 103 161 103 l70 0 0 -210 0 -210 -70 0 -70 0 0 113 -1 112 -56 -63 -56
-63 -58 63 -58 63 -1 -112 0 -113 -70 0 -70 0 0 210 0 210 73 0 73 0 54 -65z
m832 -140 c48 -110 88 -203 88 -207 0 -5 -34 -8 -75 -8 l-75 0 -17 35 -17 35
-86 0 -86 0 -13 -35 -12 -35 -80 0 c-43 0 -79 2 -79 5 0 3 41 97 91 210 l92
206 90 -3 90 -3 89 -200z m506 143 l3 -58 -76 0 -75 0 0 -150 0 -150 -70 0
-69 0 -3 148 -3 147 -72 3 -73 3 0 53 c0 29 3 56 7 60 4 3 102 5 217 4 l211
-3 3 -57z m522 -78 l0 -140 -25 0 -25 0 30 -60 c16 -33 30 -64 30 -70 0 -6
-30 -10 -73 -10 l-73 0 -34 70 -34 70 -48 0 -48 0 0 -70 0 -71 -72 3 -73 3 -3
195 c-1 107 0 200 2 207 4 10 56 13 226 13 l220 0 0 -140z m400 80 l0 -60 -40
0 -40 0 0 -90 0 -90 40 0 40 0 0 -60 0 -61 -152 3 -153 3 -3 58 -3 57 41 0 40
0 0 90 0 90 -40 0 -40 0 0 53 c0 30 3 57 7 60 3 4 73 7 155 7 l148 0 0 -60z
m530 -25 l0 -85 -70 0 c-68 0 -70 1 -70 25 0 24 -2 25 -68 25 l-69 0 -22 -48
-23 -49 21 -41 21 -42 70 0 c68 0 70 1 70 25 0 24 2 25 70 25 l70 0 0 -85 0
-85 -184 0 c-135 0 -186 3 -193 13 -6 6 -32 53 -58 104 l-48 92 48 93 c26 51
52 99 58 106 7 9 58 12 193 12 l184 0 0 -85z m520 10 l0 -75 -70 0 c-56 0 -70
3 -70 15 0 12 -15 15 -71 15 -40 0 -68 -4 -65 -9 4 -5 67 -24 141 -41 l135
-32 0 -109 0 -109 -210 0 -210 0 0 75 0 75 70 0 c56 0 70 -3 70 -15 0 -12 14
-15 65 -15 36 0 65 4 65 10 0 10 -33 21 -172 52 l-98 22 0 108 0 108 210 0
210 0 0 -75z m-3241 -536 c48 -17 37 -28 -23 -22 -49 5 -57 3 -80 -20 -18 -18
-26 -37 -26 -62 0 -25 8 -44 26 -62 23 -23 31 -25 80 -20 64 7 72 -12 12 -27
-135 -34 -208 147 -84 208 37 19 53 19 95 5z m970 0 c48 -17 37 -28 -23 -22
-49 5 -57 3 -80 -20 -37 -37 -36 -97 2 -127 22 -19 36 -21 80 -17 30 3 52 2
52 -4 0 -16 -53 -31 -94 -26 -107 14 -131 163 -34 210 39 20 55 21 97 6z
m1143 -5 c23 -14 2 -22 -46 -17 -49 5 -57 3 -80 -20 -33 -33 -35 -83 -5 -121
18 -23 27 -27 68 -24 44 3 46 4 49 36 3 29 1 32 -22 32 -14 0 -26 5 -26 10 0
6 18 10 40 10 l40 0 0 -49 c0 -46 -2 -50 -31 -60 -66 -23 -127 -3 -154 49 -44
85 24 179 119 165 22 -3 43 -8 48 -11z m1400 0 c23 -14 2 -22 -46 -17 -49 5
-57 3 -80 -20 -35 -35 -36 -94 -2 -126 18 -17 33 -22 67 -19 42 3 44 5 47 36
3 29 1 32 -22 32 -14 0 -26 5 -26 10 0 6 18 10 40 10 l40 0 0 -50 c0 -49 0
-49 -39 -61 -81 -24 -148 13 -158 88 -10 79 52 139 131 128 22 -3 43 -8 48
-11z m-4012 -44 l33 -51 34 51 c21 32 41 50 53 50 19 0 20 -7 20 -105 0 -85
-3 -105 -15 -105 -11 0 -15 19 -17 88 l-3 87 -30 -47 c-16 -27 -34 -48 -40
-48 -5 0 -23 21 -40 48 l-30 47 -3 -87 c-2 -69 -6 -88 -17 -88 -12 0 -15 20
-15 105 0 96 2 105 19 105 12 0 31 -19 51 -50z m320 40 c0 -5 -25 -10 -55 -10
l-55 0 0 -35 0 -35 50 0 c28 0 50 -4 50 -10 0 -5 -22 -10 -50 -10 l-50 0 0
-40 0 -40 55 0 c30 0 55 -4 55 -10 0 -6 -30 -10 -70 -10 l-70 0 0 105 0 105
70 0 c40 0 70 -4 70 -10z m270 -35 l0 -45 60 0 60 0 0 45 c0 33 4 45 15 45 12
0 15 -18 15 -105 0 -87 -3 -105 -15 -105 -11 0 -15 12 -15 50 l0 50 -60 0 -60
0 0 -50 c0 -38 -4 -50 -15 -50 -12 0 -15 18 -15 105 0 87 3 105 15 105 11 0
15 -12 15 -45z m347 -59 c24 -55 43 -101 43 -103 0 -1 -6 -3 -14 -3 -8 0 -20
16 -27 35 -13 34 -15 35 -65 35 -51 0 -53 -1 -64 -35 -6 -19 -18 -35 -26 -35
-8 0 -14 1 -14 3 0 5 80 189 87 200 15 24 40 -6 80 -97z m172 18 l71 -86 0 86
c0 70 3 86 15 86 12 0 15 -18 15 -105 0 -134 -10 -136 -100 -20 -36 46 -67 84
-70 85 -3 0 -4 -38 -2 -85 3 -72 1 -85 -12 -85 -14 0 -16 16 -16 105 0 84 3
105 14 105 8 0 46 -39 85 -86z m171 -19 c0 -87 -3 -105 -15 -105 -12 0 -15 18
-15 105 0 87 3 105 15 105 12 0 15 -18 15 -105z m404 12 c21 -50 41 -98 43
-104 3 -7 -2 -13 -10 -13 -9 0 -20 15 -27 35 -11 34 -13 35 -64 35 -50 0 -52
-1 -65 -35 -7 -19 -19 -35 -27 -35 -12 0 -12 4 -1 33 8 17 27 61 42 97 34 82
33 80 53 80 12 0 29 -28 56 -93z m106 -2 l0 -95 50 0 c28 0 50 -4 50 -10 0 -6
-28 -10 -65 -10 l-65 0 0 105 c0 87 3 105 15 105 12 0 15 -17 15 -95z m370 85
c0 -5 -25 -10 -55 -10 l-55 0 0 -35 0 -35 50 0 c28 0 50 -4 50 -10 0 -5 -22
-10 -50 -10 l-50 0 0 -40 0 -40 54 0 c30 0 58 -4 61 -10 4 -6 -22 -10 -69 -10
l-76 0 0 105 0 105 70 0 c40 0 70 -4 70 -10z m137 -75 l68 -84 3 84 c2 67 6
85 17 85 12 0 15 -20 15 -105 0 -133 -11 -136 -94 -30 -87 111 -86 111 -79 11
5 -76 4 -86 -11 -86 -14 0 -16 14 -16 105 0 86 3 105 15 105 8 0 45 -38 82
-85z m403 -20 c0 -87 -3 -105 -15 -105 -12 0 -15 18 -15 105 0 87 3 105 15
105 12 0 15 -18 15 -105z m136 19 l69 -86 3 86 c2 67 6 86 17 86 12 0 15 -20
15 -105 0 -95 -2 -105 -18 -105 -12 0 -46 34 -88 87 l-69 88 -3 -88 c-4 -124
-22 -110 -22 18 0 81 3 105 13 105 8 0 45 -39 83 -86z m274 76 c0 -5 -25 -10
-55 -10 l-55 0 0 -35 0 -35 50 0 c64 0 66 -18 3 -22 -48 -3 -48 -3 -51 -40
l-3 -38 60 0 c34 0 61 -4 61 -10 0 -6 -30 -10 -70 -10 l-70 0 0 105 0 105 65
0 c37 0 65 -4 65 -10z m180 0 c0 -5 -25 -10 -55 -10 l-55 0 0 -35 0 -35 50 0
c28 0 50 -4 50 -10 0 -5 -22 -10 -50 -10 l-50 0 0 -40 0 -40 55 0 c30 0 55 -4
55 -10 0 -6 -30 -10 -70 -10 l-70 0 0 105 0 105 70 0 c40 0 70 -4 70 -10z
m180 -10 c27 -27 25 -46 -5 -76 l-25 -25 30 -45 c27 -38 28 -44 13 -44 -11 0
-29 18 -45 45 -23 37 -33 45 -58 45 -29 0 -30 -2 -30 -45 0 -25 -4 -45 -10
-45 -6 0 -10 42 -10 105 l0 105 60 0 c47 0 64 -4 80 -20z m90 -85 c0 -87 -3
-105 -15 -105 -12 0 -15 18 -15 105 0 87 3 105 15 105 12 0 15 -18 15 -105z
m137 19 l68 -86 3 86 c2 67 6 86 17 86 12 0 15 -20 15 -105 0 -135 -10 -136
-105 -17 l-70 87 -3 -87 c-4 -125 -22 -111 -22 17 0 84 3 105 14 105 8 0 45
-39 83 -86z"/>
<path d="M4201 5377 c-12 -27 -21 -51 -21 -53 0 -2 18 -4 41 -4 44 0 44 1 14
74 l-13 31 -21 -48z"/>
<path d="M5130 5415 c0 -24 2 -25 75 -25 73 0 75 1 75 25 0 24 -2 25 -75 25
-73 0 -75 -1 -75 -25z"/>
<path d="M3996 4886 c-22 -53 -21 -56 20 -56 32 0 35 2 28 23 -3 12 -12 33
-19 47 l-13 24 -16 -38z"/>
<path d="M4746 4880 c-9 -22 -16 -43 -16 -45 0 -3 16 -5 35 -5 19 0 35 4 35 9
0 11 -29 81 -34 81 -2 0 -11 -18 -20 -40z"/>
<path d="M6490 4896 c0 -43 10 -49 60 -41 27 4 41 13 45 26 10 31 -13 49 -61
49 -43 0 -44 0 -44 -34z"/>
<path d="M2815 4344 c-105 -70 -183 -172 -170 -223 12 -49 111 -246 187 -371
118 -196 182 -284 215 -294 39 -13 156 14 248 57 84 39 95 42 175 41 152 -2
323 -85 448 -218 110 -118 157 -250 132 -372 -14 -68 -16 -154 -6 -236 l7 -56
127 -47 c249 -92 519 -158 620 -153 54 3 58 5 92 50 19 26 46 75 59 110 52
136 65 159 110 201 105 99 237 147 416 155 137 5 203 -5 291 -47 61 -29 94
-61 168 -167 24 -33 64 -77 89 -98 l46 -38 66 22 c153 51 466 224 604 333 l63
51 -4 67 c-4 54 -14 85 -54 165 -46 93 -49 105 -52 189 -3 73 0 103 18 155 69
207 263 396 442 429 44 8 77 7 148 -6 98 -16 225 -11 254 10 15 12 116 275
116 303 0 12 -98 14 -658 14 l-659 0 -65 -88 c-205 -274 -525 -470 -878 -538
-139 -26 -381 -24 -516 4 -257 55 -469 158 -662 323 -72 61 -203 208 -238 268
l-18 31 -561 0 -560 0 -40 -26z"/>
</g>
</svg>
